<svg width="372" height="321" viewBox="0 0 372 321" fill="none" xmlns="http://www.w3.org/2000/svg">
<g id="Sherlock Animation">
<path id="SH" d="M80.1461 167.171C58.1155 160.838 42.0608 153.078 31.982 143.892C21.9924 134.616 16.9977 123.199 16.9977 109.642C16.9977 94.3005 23.1074 81.6351 35.3268 71.6455C47.6353 61.5667 63.6008 56.5273 83.2232 56.5273C96.6021 56.5273 108.509 59.1139 118.945 64.2871C129.47 69.4603 137.586 76.5957 143.295 85.6934C149.092 94.791 151.991 104.736 151.991 115.528H126.17C126.17 103.755 122.423 94.5234 114.931 87.834C107.439 81.0553 96.8697 77.666 83.2232 77.666C70.5579 77.666 60.6575 80.4756 53.5221 86.0947C46.4758 91.6247 42.9527 99.3398 42.9527 109.24C42.9527 117.178 46.2975 123.912 52.9869 129.442C59.7656 134.883 71.2268 139.878 87.3707 144.427C103.604 148.976 116.269 154.015 125.367 159.545C134.554 164.986 141.332 171.363 145.703 178.677C150.162 185.991 152.392 194.598 152.392 204.498C152.392 220.285 146.238 232.951 133.929 242.494C121.621 251.949 105.165 256.676 84.5611 256.676C71.1822 256.676 58.6952 254.134 47.1002 249.05C35.5051 243.877 26.5413 236.83 20.2086 227.911C13.9651 218.992 10.8434 208.868 10.8434 197.541H36.6646C36.6646 209.314 40.9905 218.635 49.6422 225.503C58.3831 232.282 70.0227 235.671 84.5611 235.671C98.1184 235.671 108.509 232.906 115.734 227.376C122.959 221.846 126.571 214.309 126.571 204.766C126.571 195.222 123.226 187.864 116.537 182.69C109.847 177.428 97.7171 172.255 80.1461 167.171ZM348.848 254H323.027V163.96H224.826V254H199.138V59.2031H224.826V142.955H323.027V59.2031H348.848V254Z" fill="#17093E"/>
<g id="Hat">
<path id="Vector 1" d="M176.943 99.7075L175.91 102.968C174.306 108.037 180.672 111.776 184.317 107.906L188.731 103.219C192.438 99.2833 188.13 93.0829 183.149 95.1835L179.767 96.6097C178.417 97.1788 177.385 98.3111 176.943 99.7075Z" fill="#FF1616"/>
<path id="Vector 2" d="M247.813 59.2697L251.217 59.6047C256.508 60.1253 257.438 67.4498 252.445 69.2763L246.399 71.4883C241.322 73.3455 237.319 66.9439 241.211 63.1926L243.854 60.6456C244.908 59.6291 246.355 59.1262 247.813 59.2697Z" fill="#FF1616"/>
<path id="Rectangle 9" d="M180.864 107.523C170.007 91.0608 174.551 68.9139 191.013 58.0567L199.692 52.3333C216.154 41.4761 238.301 46.0201 249.158 62.4825V62.4825L252.144 67.0103L237.24 76.8396L197.277 96.6985L180.864 107.523V107.523Z" fill="#FF1616"/>
<rect id="Rectangle 15" x="198.059" y="49.8427" width="14.9142" height="7.84956" rx="3.92478" transform="rotate(56.1636 198.059 49.8427)" fill="#FF1616"/>
</g>
</g>
</svg>
